# xmcd
#
# Track frame offsets:
# 182
# 32327
# 56360
# 87300
# 111127
# 151570
# 199752
# 224087
#
# Disc length: 3239 seconds
#
#
# Revision: 0
# Processed by: cddbd v1.5.1PL0 Copyright (c) Steve Scherf et al.
# Submitted via: FreeRIP 2.941 
#
DISCID=600ca508
DTITLE=Os Tubarões ao vivo - os Tubarões ao vivo
DYEAR=1993
DGENRE=Folk
TTITLE0=Djosinho Cabral
TTITLE1=Somada
TTITLE2=Medley Morna
TTITLE3=Resposta de marido exemplar
TTITLE4=Medley terra
TTITLE5=Medley tabanca
TTITLE6=Tabanca
TTITLE7=Manuel Suave
EXTD=
EXTT0=
EXTT1=
EXTT2=
EXTT3=
EXTT4=
EXTT5=
EXTT6=
EXTT7=
PLAYORDER=
